<svg xmlns="http://www.w3.org/2000/svg" xmlns:svg="http://www.w3.org/2000/svg" id="svg2" width="703.076" height="467.999" version="1.1"><metadata id="metadata7"/><g id="layer1" transform="translate(-20.509097,-78.21498)"><rect style="fill:#ffb380;fill-opacity:1;stroke:#520;stroke-width:1.64400005;stroke-miterlimit:4;stroke-opacity:1;stroke-dasharray:none;stroke-dashoffset:0" id="rect3853" width="143.432" height="350.416" x="534.331" y="124.037" rx="22.306" ry="38.367"/><rect id="rect3823" width="143.432" height="350.416" x="378.331" y="124.037" rx="22.306" ry="38.367" style="fill:#ffb380;fill-opacity:1;stroke:#520;stroke-width:1.64370167;stroke-miterlimit:4;stroke-opacity:1;stroke-dasharray:none;stroke-dashoffset:0"/><rect style="fill:#ffb380;fill-opacity:1;stroke:#520;stroke-width:1.64370167;stroke-miterlimit:4;stroke-opacity:1;stroke-dasharray:none;stroke-dashoffset:0" id="rect3793" width="143.432" height="350.416" x="222.331" y="124.037" rx="22.306" ry="38.367"/><rect id="rect3767" width="143.432" height="350.416" x="66.331" y="124.037" rx="22.306" ry="38.367" style="fill:#ffb380;fill-opacity:1;stroke:#520;stroke-width:1.64370167;stroke-miterlimit:4;stroke-opacity:1;stroke-dasharray:none;stroke-dashoffset:0"/><path id="path3906" d="m 136.76611,339.97406 314.33098,-0.64331" style="fill:none;stroke:#000;stroke-width:4.48999977;stroke-linecap:butt;stroke-linejoin:miter;stroke-miterlimit:4;stroke-opacity:1;stroke-dasharray:4.48999977,4.48999977;stroke-dashoffset:0"/><path style="fill:none;stroke:#000;stroke-width:4.48999977;stroke-linecap:butt;stroke-linejoin:miter;stroke-miterlimit:4;stroke-opacity:1;stroke-dasharray:4.48999977,4.48999977;stroke-dashoffset:0" id="path3904" d="m 136.76611,269.97406 468.33098,-0.64331"/><path id="path3912" d="m 136.76611,411.97406 468.33098,-0.64331" style="fill:none;stroke:#000;stroke-width:4.48999977;stroke-linecap:butt;stroke-linejoin:miter;stroke-miterlimit:4;stroke-opacity:1;stroke-dasharray:4.48999977,4.48999977;stroke-dashoffset:0"/><path id="path2987" d="m 197.42624,96.153122 c 0,16.421008 -13.31186,29.732868 -29.73287,29.732868 -16.42101,0 -29.73286,-13.31186 -29.73286,-29.732868 0,-16.42101 13.31185,-29.732868 29.73286,-29.732868 16.42101,0 29.73287,13.311858 29.73287,29.732868 z" transform="translate(-29.646208,104)" style="fill:#37c8ab;fill-opacity:1;stroke:#520;stroke-width:2;stroke-miterlimit:4;stroke-opacity:1;stroke-dasharray:none;stroke-dashoffset:0"/><text id="text3757" x="112.374" y="204.838" xml:space="preserve" style="font-size:14px;font-style:normal;font-variant:normal;font-weight:400;font-stretch:normal;line-height:125%;letter-spacing:0;word-spacing:0;fill:#000;fill-opacity:1;stroke:none;font-family:Verdana;-inkscape-font-specification:Verdana"><tspan style="font-size:18px;font-weight:700;-inkscape-font-specification:Verdana Bold" id="tspan3761" x="112.374" y="204.838">Mgr1</tspan></text><path style="fill:#e5ff80;fill-opacity:1;stroke:#520;stroke-width:2;stroke-miterlimit:4;stroke-opacity:1;stroke-dasharray:none;stroke-dashoffset:0" id="path3765" d="m 197.42624,96.153122 c 0,16.421008 -13.31186,29.732868 -29.73287,29.732868 -16.42101,0 -29.73286,-13.31186 -29.73286,-29.732868 0,-16.42101 13.31185,-29.732868 29.73286,-29.732868 16.42101,0 29.73287,13.311858 29.73287,29.732868 z" transform="translate(-29.646208,174)"/><text style="font-size:14px;font-style:normal;font-variant:normal;font-weight:400;font-stretch:normal;line-height:125%;letter-spacing:0;word-spacing:0;fill:#000;fill-opacity:1;stroke:none;font-family:Verdana;-inkscape-font-specification:Verdana" id="text3773" x="124.626" y="276.714" xml:space="preserve"><tspan id="tspan3775" x="124.626" y="276.714" style="font-size:18px;font-weight:700;-inkscape-font-specification:Verdana Bold">R1</tspan></text><text id="text3777" x="94.617" y="153.726" xml:space="preserve" style="font-size:14px;font-style:normal;font-variant:normal;font-weight:400;font-stretch:normal;line-height:125%;letter-spacing:0;word-spacing:0;fill:#000;fill-opacity:1;stroke:none;font-family:Verdana;-inkscape-font-specification:Verdana"><tspan style="font-size:22px;font-weight:700;-inkscape-font-specification:Verdana Bold" id="tspan3779" x="94.617" y="153.726">Node 1</tspan></text><path id="path3781" d="m 197.42624,96.153122 c 0,16.421008 -13.31186,29.732868 -29.73287,29.732868 -16.42101,0 -29.73286,-13.31186 -29.73286,-29.732868 0,-16.42101 13.31185,-29.732868 29.73286,-29.732868 16.42101,0 29.73287,13.311858 29.73287,29.732868 z" transform="translate(-29.646208,244)" style="fill:#faa;fill-opacity:1;stroke:red;stroke-width:2;stroke-miterlimit:4;stroke-opacity:1;stroke-dasharray:none;stroke-dashoffset:0"/><text id="text3783" x="124.626" y="346.468" xml:space="preserve" style="font-size:14px;font-style:normal;font-variant:normal;font-weight:400;font-stretch:normal;line-height:125%;letter-spacing:0;word-spacing:0;fill:#000;fill-opacity:1;stroke:none;font-family:Verdana;-inkscape-font-specification:Verdana"><tspan style="font-size:18px;font-weight:700;-inkscape-font-specification:Verdana Bold" id="tspan3785" x="124.626" y="346.468">A1</tspan></text><path style="fill:#faa;fill-opacity:1;stroke:#520;stroke-width:2;stroke-miterlimit:4;stroke-opacity:1;stroke-dasharray:none;stroke-dashoffset:0" id="path3787" d="m 197.42624,96.153122 c 0,16.421008 -13.31186,29.732868 -29.73287,29.732868 -16.42101,0 -29.73286,-13.31186 -29.73286,-29.732868 0,-16.42101 13.31185,-29.732868 29.73286,-29.732868 16.42101,0 29.73287,13.311858 29.73287,29.732868 z" transform="translate(-29.646208,314)"/><text style="font-size:14px;font-style:normal;font-variant:normal;font-weight:400;font-stretch:normal;line-height:125%;letter-spacing:0;word-spacing:0;fill:#000;fill-opacity:1;stroke:none;font-family:Verdana;-inkscape-font-specification:Verdana" id="text3789" x="124.626" y="416.468" xml:space="preserve"><tspan id="tspan3791" x="124.626" y="416.468" style="font-size:18px;font-weight:700;-inkscape-font-specification:Verdana Bold">B1</tspan></text><path style="fill:#37c8ab;fill-opacity:1;stroke:#520;stroke-width:2;stroke-miterlimit:4;stroke-opacity:1;stroke-dasharray:none;stroke-dashoffset:0" id="path3795" d="m 197.42624,96.153122 c 0,16.421008 -13.31186,29.732868 -29.73287,29.732868 -16.42101,0 -29.73286,-13.31186 -29.73286,-29.732868 0,-16.42101 13.31185,-29.732868 29.73286,-29.732868 16.42101,0 29.73287,13.311858 29.73287,29.732868 z" transform="translate(126.35376,104)"/><text style="font-size:14px;font-style:normal;font-variant:normal;font-weight:400;font-stretch:normal;line-height:125%;letter-spacing:0;word-spacing:0;fill:#000;fill-opacity:1;stroke:none;font-family:Verdana;-inkscape-font-specification:Verdana" id="text3797" x="268.374" y="204.838" xml:space="preserve"><tspan id="tspan3799" x="268.374" y="204.838" style="font-size:18px;font-weight:700;-inkscape-font-specification:Verdana Bold">Mgr2</tspan></text><path id="path3801" d="m 197.42624,96.153122 c 0,16.421008 -13.31186,29.732868 -29.73287,29.732868 -16.42101,0 -29.73286,-13.31186 -29.73286,-29.732868 0,-16.42101 13.31185,-29.732868 29.73286,-29.732868 16.42101,0 29.73287,13.311858 29.73287,29.732868 z" transform="translate(126.35376,174)" style="fill:#e5ff80;fill-opacity:1;stroke:red;stroke-width:2;stroke-miterlimit:4;stroke-opacity:1;stroke-dasharray:none;stroke-dashoffset:0"/><text id="text3803" x="280.626" y="276.714" xml:space="preserve" style="font-size:14px;font-style:normal;font-variant:normal;font-weight:400;font-stretch:normal;line-height:125%;letter-spacing:0;word-spacing:0;fill:#000;fill-opacity:1;stroke:none;font-family:Verdana;-inkscape-font-specification:Verdana"><tspan style="font-size:18px;font-weight:700;-inkscape-font-specification:Verdana Bold" id="tspan3805" x="280.626" y="276.714">R2</tspan></text><text style="font-size:14px;font-style:normal;font-variant:normal;font-weight:400;font-stretch:normal;line-height:125%;letter-spacing:0;word-spacing:0;fill:#000;fill-opacity:1;stroke:none;font-family:Verdana;-inkscape-font-specification:Verdana" id="text3807" x="250.616" y="153.726" xml:space="preserve"><tspan id="tspan3809" x="250.616" y="153.726" style="font-size:22px;font-weight:700;-inkscape-font-specification:Verdana Bold">Node 2</tspan></text><path style="fill:#faa;fill-opacity:1;stroke:#520;stroke-width:2;stroke-miterlimit:4;stroke-opacity:1;stroke-dasharray:none;stroke-dashoffset:0" id="path3811" d="m 197.42624,96.153122 c 0,16.421008 -13.31186,29.732868 -29.73287,29.732868 -16.42101,0 -29.73286,-13.31186 -29.73286,-29.732868 0,-16.42101 13.31185,-29.732868 29.73286,-29.732868 16.42101,0 29.73287,13.311858 29.73287,29.732868 z" transform="translate(126.35376,244)"/><text style="font-size:14px;font-style:normal;font-variant:normal;font-weight:400;font-stretch:normal;line-height:125%;letter-spacing:0;word-spacing:0;fill:#000;fill-opacity:1;stroke:none;font-family:Verdana;-inkscape-font-specification:Verdana" id="text3813" x="280.626" y="346.468" xml:space="preserve"><tspan id="tspan3815" x="280.626" y="346.468" style="font-size:18px;font-weight:700;-inkscape-font-specification:Verdana Bold">A2</tspan></text><path id="path3825" d="m 197.42624,96.153122 c 0,16.421008 -13.31186,29.732868 -29.73287,29.732868 -16.42101,0 -29.73286,-13.31186 -29.73286,-29.732868 0,-16.42101 13.31185,-29.732868 29.73286,-29.732868 16.42101,0 29.73287,13.311858 29.73287,29.732868 z" transform="translate(282.35376,104)" style="fill:#37c8ab;fill-opacity:1;stroke:#520;stroke-width:2;stroke-miterlimit:4;stroke-opacity:1;stroke-dasharray:none;stroke-dashoffset:0"/><text id="text3827" x="424.374" y="204.838" xml:space="preserve" style="font-size:14px;font-style:normal;font-variant:normal;font-weight:400;font-stretch:normal;line-height:125%;letter-spacing:0;word-spacing:0;fill:#000;fill-opacity:1;stroke:none;font-family:Verdana;-inkscape-font-specification:Verdana"><tspan style="font-size:18px;font-weight:700;-inkscape-font-specification:Verdana Bold" id="tspan3829" x="424.374" y="204.838">Mgr3</tspan></text><path style="fill:#e5ff80;fill-opacity:1;stroke:#520;stroke-width:2;stroke-miterlimit:4;stroke-opacity:1;stroke-dasharray:none;stroke-dashoffset:0" id="path3831" d="m 197.42624,96.153122 c 0,16.421008 -13.31186,29.732868 -29.73287,29.732868 -16.42101,0 -29.73286,-13.31186 -29.73286,-29.732868 0,-16.42101 13.31185,-29.732868 29.73286,-29.732868 16.42101,0 29.73287,13.311858 29.73287,29.732868 z" transform="translate(282.35376,174)"/><text style="font-size:14px;font-style:normal;font-variant:normal;font-weight:400;font-stretch:normal;line-height:125%;letter-spacing:0;word-spacing:0;fill:#000;fill-opacity:1;stroke:none;font-family:Verdana;-inkscape-font-specification:Verdana" id="text3833" x="436.626" y="276.714" xml:space="preserve"><tspan id="tspan3835" x="436.626" y="276.714" style="font-size:18px;font-weight:700;-inkscape-font-specification:Verdana Bold">R3</tspan></text><text id="text3837" x="406.616" y="153.726" xml:space="preserve" style="font-size:14px;font-style:normal;font-variant:normal;font-weight:400;font-stretch:normal;line-height:125%;letter-spacing:0;word-spacing:0;fill:#000;fill-opacity:1;stroke:none;font-family:Verdana;-inkscape-font-specification:Verdana"><tspan style="font-size:22px;font-weight:700;-inkscape-font-specification:Verdana Bold" id="tspan3839" x="406.616" y="153.726">Node 3</tspan></text><path id="path3841" d="m 197.42624,96.153122 c 0,16.421008 -13.31186,29.732868 -29.73287,29.732868 -16.42101,0 -29.73286,-13.31186 -29.73286,-29.732868 0,-16.42101 13.31185,-29.732868 29.73286,-29.732868 16.42101,0 29.73287,13.311858 29.73287,29.732868 z" transform="translate(282.35376,244)" style="fill:#faa;fill-opacity:1;stroke:#520;stroke-width:2;stroke-miterlimit:4;stroke-opacity:1;stroke-dasharray:none;stroke-dashoffset:0"/><text id="text3843" x="436.626" y="346.468" xml:space="preserve" style="font-size:14px;font-style:normal;font-variant:normal;font-weight:400;font-stretch:normal;line-height:125%;letter-spacing:0;word-spacing:0;fill:#000;fill-opacity:1;stroke:none;font-family:Verdana;-inkscape-font-specification:Verdana"><tspan style="font-size:18px;font-weight:700;-inkscape-font-specification:Verdana Bold" id="tspan3845" x="436.626" y="346.468">A3</tspan></text><path style="fill:#faa;fill-opacity:1;stroke:red;stroke-width:2;stroke-miterlimit:4;stroke-opacity:1;stroke-dasharray:none;stroke-dashoffset:0" id="path3847" d="m 197.42624,96.153122 c 0,16.421008 -13.31186,29.732868 -29.73287,29.732868 -16.42101,0 -29.73286,-13.31186 -29.73286,-29.732868 0,-16.42101 13.31185,-29.732868 29.73286,-29.732868 16.42101,0 29.73287,13.311858 29.73287,29.732868 z" transform="translate(282.35376,314)"/><text style="font-size:14px;font-style:normal;font-variant:normal;font-weight:400;font-stretch:normal;line-height:125%;letter-spacing:0;word-spacing:0;fill:#000;fill-opacity:1;stroke:none;font-family:Verdana;-inkscape-font-specification:Verdana" id="text3849" x="436.626" y="416.468" xml:space="preserve"><tspan id="tspan3851" x="436.626" y="416.468" style="font-size:18px;font-weight:700;-inkscape-font-specification:Verdana Bold">B2</tspan></text><path style="fill:#37c8ab;fill-opacity:1;stroke:#520;stroke-width:2;stroke-miterlimit:4;stroke-opacity:1;stroke-dasharray:none;stroke-dashoffset:0" id="path3855" d="m 197.42624,96.153122 c 0,16.421008 -13.31186,29.732868 -29.73287,29.732868 -16.42101,0 -29.73286,-13.31186 -29.73286,-29.732868 0,-16.42101 13.31185,-29.732868 29.73286,-29.732868 16.42101,0 29.73287,13.311858 29.73287,29.732868 z" transform="translate(438.35379,104)"/><text style="font-size:14px;font-style:normal;font-variant:normal;font-weight:400;font-stretch:normal;line-height:125%;letter-spacing:0;word-spacing:0;fill:#000;fill-opacity:1;stroke:none;font-family:Verdana;-inkscape-font-specification:Verdana" id="text3857" x="580.374" y="204.838" xml:space="preserve"><tspan id="tspan3859" x="580.374" y="204.838" style="font-size:18px;font-weight:700;-inkscape-font-specification:Verdana Bold">Mgr4</tspan></text><path id="path3861" d="m 197.42624,96.153122 c 0,16.421008 -13.31186,29.732868 -29.73287,29.732868 -16.42101,0 -29.73286,-13.31186 -29.73286,-29.732868 0,-16.42101 13.31185,-29.732868 29.73286,-29.732868 16.42101,0 29.73287,13.311858 29.73287,29.732868 z" transform="translate(438.35379,174)" style="fill:#e5ff80;fill-opacity:1;stroke:#520;stroke-width:2;stroke-miterlimit:4;stroke-opacity:1;stroke-dasharray:none;stroke-dashoffset:0"/><text id="text3863" x="592.626" y="276.714" xml:space="preserve" style="font-size:14px;font-style:normal;font-variant:normal;font-weight:400;font-stretch:normal;line-height:125%;letter-spacing:0;word-spacing:0;fill:#000;fill-opacity:1;stroke:none;font-family:Verdana;-inkscape-font-specification:Verdana"><tspan style="font-size:18px;font-weight:700;-inkscape-font-specification:Verdana Bold" id="tspan3865" x="592.626" y="276.714">R4</tspan></text><text style="font-size:14px;font-style:normal;font-variant:normal;font-weight:400;font-stretch:normal;line-height:125%;letter-spacing:0;word-spacing:0;fill:#000;fill-opacity:1;stroke:none;font-family:Verdana;-inkscape-font-specification:Verdana" id="text3867" x="562.617" y="153.726" xml:space="preserve"><tspan id="tspan3869" x="562.617" y="153.726" style="font-size:22px;font-weight:700;-inkscape-font-specification:Verdana Bold">Node 4</tspan></text><path id="path3877" d="m 197.42624,96.153122 c 0,16.421008 -13.31186,29.732868 -29.73287,29.732868 -16.42101,0 -29.73286,-13.31186 -29.73286,-29.732868 0,-16.42101 13.31185,-29.732868 29.73286,-29.732868 16.42101,0 29.73287,13.311858 29.73287,29.732868 z" transform="translate(438.35379,314)" style="fill:#faa;fill-opacity:1;stroke:#520;stroke-width:2;stroke-miterlimit:4;stroke-opacity:1;stroke-dasharray:none;stroke-dashoffset:0"/><text id="text3879" x="592.626" y="416.468" xml:space="preserve" style="font-size:14px;font-style:normal;font-variant:normal;font-weight:400;font-stretch:normal;line-height:125%;letter-spacing:0;word-spacing:0;fill:#000;fill-opacity:1;stroke:none;font-family:Verdana;-inkscape-font-specification:Verdana"><tspan style="font-size:18px;font-weight:700;-inkscape-font-specification:Verdana Bold" id="tspan3881" x="592.626" y="416.468">B3</tspan></text><text id="text4030" x="370.748" y="498.535" xml:space="preserve" style="font-size:14px;font-style:normal;font-variant:normal;font-weight:400;font-stretch:normal;text-align:center;line-height:125%;letter-spacing:0;word-spacing:0;text-anchor:middle;fill:#000;fill-opacity:1;stroke:none;font-family:Verdana;-inkscape-font-specification:Verdana"><tspan id="tspan4044" x="370.748" y="498.535" style="font-weight:700;text-align:center;text-anchor:middle;-inkscape-font-specification:Verdana Bold">Root ensemble: [R1, R2, R3, R4] Ensemble A: [A1, A2, A3] Ensemble B: [B1, B2, B3]</tspan><tspan id="tspan4042" x="370.748" y="533.535" style="font-weight:700;text-align:center;text-anchor:middle;-inkscape-font-specification:Verdana Bold">Leaders highlighted in <tspan id="tspan4050" style="fill:red">red</tspan></tspan></text></g></svg>