<svg xmlns="http://www.w3.org/2000/svg" xmlns:svg="http://www.w3.org/2000/svg" id="svg2" width="1138.938" height="729.543" version="1.1" viewBox="0 0 911.15 583.365"><metadata id="metadata311"/><defs id="defs309"><marker id="TriangleOutL" orient="auto" refX="0" refY="0" style="overflow:visible"><path id="path4412" d="m 5.77,0 -8.65,5 0,-10 8.65,5 z" transform="scale(0.8,0.8)" style="fill-rule:evenodd;stroke:#000;stroke-width:1pt;marker-start:none"/></marker></defs><g id="edge20" class="edge" transform="translate(-1283.8051,557.39504)"><title id="title267">Leading-&gt;Prepare</title><path style="fill:none;stroke:#000;marker-end:url(#TriangleOutL);marker-mid:url(#TriangleOutL)" id="path269" d="m 2091.6482,-409.00399 c -11.8972,28.34751 -23.233,31.98374 -61.0635,30.81642 -72.7176,-0.16144 -144.6212,1.61587 -184.386,-2.42262 -16.353,-1.66081 -47.7204,4.01111 -58.872,-20.14654"/><text style="font-size:14px;text-anchor:middle;font-family:Verdana" id="text273" x="2016.609" y="-384.656" font-size="14">KV failure</text></g><g id="g6785" transform="translate(-190.2057,-31.124959)"><path style="fill:none;stroke:#000;marker-start:none;marker-end:url(#TriangleOutL)" id="path156" d="m 624.73431,366.28018 c 12.83191,-23.47571 34.78194,-66.3002 36.97093,-91.09214 1.77698,-20.12571 9.35137,-36.49863 -2.28337,-81.97217"/><text id="text6779" x="603.449" y="281.598" xml:space="preserve" style="font-size:14px;font-style:normal;font-variant:normal;font-weight:400;font-stretch:normal;text-align:center;line-height:125%;letter-spacing:0;word-spacing:0;text-anchor:middle;fill:#000;fill-opacity:1;stroke:none;font-family:Verdana;-inkscape-font-specification:Verdana"><tspan id="tspan6781" x="603.449" y="281.598">Election</tspan><tspan id="tspan6783" x="603.449" y="299.098">time out,</tspan><tspan id="tspan7168" x="603.449" y="316.598">send prepare</tspan></text></g><g id="g9950" transform="translate(-190.2057,-31.124959)"><g id="edge13" class="edge" transform="translate(72,556.715)"><title id="title199">Prefollow-&gt;Probe</title><path id="path201" d="m 715.94145,-195.36507 c 2.81954,-16.53391 -6.67706,-24.76853 -28.39331,-31.46078 -36.86016,-10.29425 -252.86358,9.43612 -328.10682,-1.10776 -17.99333,-1.06358 -20.30508,-3.00208 -31.95236,-16.72272" style="fill:none;stroke:#000;marker-end:url(#TriangleOutL);marker-mid:url(#TriangleOutL)"/></g><text id="text9946" x="688.649" y="321.005" xml:space="preserve" style="font-size:14px;font-style:normal;font-variant:normal;font-weight:400;font-stretch:normal;line-height:125%;letter-spacing:0;word-spacing:0;fill:#000;fill-opacity:1;stroke:none;font-family:Verdana;-inkscape-font-specification:Verdana"><tspan id="tspan9948" x="688.649" y="321.005">Time out</tspan></text></g><g id="g5465" transform="translate(-1067.3052,-35.638959)"><path style="fill:none;stroke:#000;marker-end:url(#TriangleOutL)" id="path131" d="m 1523.13,377.964 c 22.2816,-1.91423 72.1798,0.9125 92.2969,0.47777"/><text id="text5461" x="1536.427" y="367.169" xml:space="preserve" style="font-size:14px;font-style:normal;font-variant:normal;font-weight:400;font-stretch:normal;line-height:125%;letter-spacing:0;word-spacing:0;fill:#000;fill-opacity:1;stroke:none;font-family:Verdana;-inkscape-font-specification:Verdana"><tspan id="tspan5463" x="1536.427" y="367.169">Got prepare</tspan></text></g><path id="path165" d="m 782.0386,362.93672 c 5.99211,16.0431 -0.89496,50.7954 -1.54249,60.52201 -4.60945,69.23871 -34.39044,38.9165 -217.41799,47.01715 -96.75568,1.18972 -348.64717,7.54822 -393.39436,-9.269 -54.99817,-32.97377 -27.94933,-139.9068 -21.33632,-177.25132" style="fill:none;stroke:#000;marker-mid:url(#TriangleOutL);marker-end:url(#TriangleOutL)"/><g id="node1" class="node" transform="translate(19.394299,525.59004)"><title id="title10">Setup</title><ellipse style="fill:#fca;stroke:#000" id="ellipse12" cx="55" cy="-258.665" d="m 92.894299,-258.66501 c 0,9.94113 -16.965856,18 -37.894299,18 -20.928443,0 -37.894299,-8.05887 -37.894299,-18 0,-9.94112 16.965856,-18 37.894299,-18 20.928443,0 37.894299,8.05888 37.894299,18 z" rx="37.894" ry="18"/><text style="font-size:14px;text-anchor:middle;font-family:Verdana" id="text14" x="55" y="-254.965" font-size="14">Setup</text></g><g id="edge1" class="edge" transform="translate(-118.2057,525.59004)"><title id="title24">Setup-&gt;Probe</title><path style="fill:none;stroke:#000;marker-end:url(#TriangleOutL)" id="path26" d="m 230.475,-258.665 c 3.22266,0.20037 16.59939,0 20.85,0"/></g><g id="node4" class="node" transform="translate(-994.6315,523.13104)"><title id="title47">Election</title><ellipse style="fill:#fca;stroke:#000" id="ellipse49" cx="1404" cy="-177.665" d="m 1450.5926,-177.66499 c 0,9.94112 -20.8602,18 -46.5926,18 -25.7324,0 -46.5926,-8.05888 -46.5926,-18 0,-9.94113 20.8602,-18 46.5926,-18 25.7324,0 46.5926,8.05887 46.5926,18 z" rx="46.593" ry="18"/><text style="font-size:14px;text-anchor:middle;font-family:Verdana" id="text51" x="1404" y="-173.965" font-size="14">Election</text></g><path id="path56" d="m 185.25298,281.2619 c 5.95483,18.53278 3.25625,42.61283 10.6356,51.74966 22.06585,18.31355 118.50309,11.02414 161.31532,12.26048" style="fill:none;stroke:#000;marker-start:none;marker-mid:url(#TriangleOutL);marker-end:url(#TriangleOutL)"/><g id="node5" class="node" transform="translate(-1365.3768,517.40504)"><title id="title63">Following</title><ellipse style="fill:#fca;stroke:#000" id="ellipse65" cx="2152" cy="-168.665" d="m 2205.0913,-168.66499 c 0,9.94112 -23.7698,18 -53.0913,18 -29.3215,0 -53.0913,-8.05888 -53.0913,-18 0,-9.94113 23.7698,-18 53.0913,-18 29.3215,0 53.0913,8.05887 53.0913,18 z" rx="53.091" ry="18"/><text style="font-size:14px;text-anchor:middle;font-family:Verdana" id="text67" x="2152" y="-164.965" font-size="14">Following</text></g><path id="path72" d="m 171.09037,283.21083 c 2.79442,30.64734 0.21398,70.7439 10.50151,91.05393 10.99617,21.70903 35.31379,21.54358 52.20242,23.66028 71.95221,-0.59136 28.67446,0.63053 349.97571,5.3169 52.80376,0 110.43157,-0.96853 138.14359,-6.99181 35.71667,-7.76312 33.96435,-21.59427 36.5269,-28.11609" style="fill:none;stroke:#000;marker-start:none;marker-end:url(#TriangleOutL);marker-mid:url(#TriangleOutL)"/><path id="path88" d="m 160.10387,281.34234 c -5.71931,37.05853 -6.84918,101.66756 6.79243,138.75981 14.44892,40.57168 120.47578,21.70995 169.4962,36.30243 21.3961,7.051 9.51077,55.06436 38.96078,59.90636" style="fill:none;stroke:#000;marker-start:none;marker-mid:url(#TriangleOutL);marker-end:url(#TriangleOutL)"/><g id="edge9" class="edge" transform="translate(-118.2057,525.59004)"><title id="title95">Pending-&gt;Probe</title><path style="fill:none;stroke:#000;marker-end:url(#TriangleOutL)" id="path97" d="m 420.01746,-313.37068 c -4.38053,8.71916 -8.84699,21.5883 -14.02286,21.68028 -68.08642,1.20992 -58.69278,-3.07088 -58.9621,15.61162 -0.15669,10.86979 4.62666,20.45747 -11.79952,17.80727"/><text style="font-size:14px;text-anchor:middle;font-family:Verdana" id="text101" x="371.227" y="-297.14" font-size="14">Time out</text></g><g id="node7" class="node" transform="translate(-1166.5052,569.07604)"><title id="title104">Prefollow</title><ellipse style="fill:#fca;stroke:#000" id="ellipse106" cx="1769" cy="-225.665" d="m 1820.9908,-225.66499 c 0,9.94112 -23.2771,18 -51.9908,18 -28.7137,0 -51.9908,-8.05888 -51.9908,-18 0,-9.94113 23.2771,-18 51.9908,-18 28.7137,0 51.9908,8.05887 51.9908,18 z" rx="51.991" ry="18"/><text style="font-size:14px;text-anchor:middle;font-family:Verdana" id="text108" x="1769" y="-221.965" font-size="14">Prefollow</text></g><path id="path122" d="m 360.49463,211.93153 c 83.90014,9.983 187.06864,-8.53649 235.13644,14.27251 34.0975,16.18 18.24272,76.05451 17.2066,95.50151" style="fill:none;stroke:#000;marker-end:url(#TriangleOutL);marker-mid:url(#TriangleOutL)"/><g id="edge7" class="edge" transform="translate(-262.57855,529.02504)"><title id="title138">Election-&gt;Following</title><path style="fill:none;stroke:#000;marker-end:url(#TriangleOutL);marker-mid:url(#TriangleOutL)" id="path140" d="m 696.23871,-168.33901 c 4.24407,4.10898 13.99603,22.24418 23.96367,24.06529 22.60699,4.13035 31.54351,0.9179 128.11881,2.08298 125.03251,1.50838 138.11747,-3.87916 153.99361,-24.66153"/><text style="font-size:14px;text-anchor:middle;font-family:Verdana" id="text144" x="768.87" y="-146.644" font-size="14">Got commit</text></g><path id="path210" d="m 441.03979,132.57404 c -163.23519,-8.066 -222.25171,-8.704 -242.24205,23.861 -13.48107,10.671 -26.37756,70.98 -25.70321,87.815" style="fill:none;stroke:#000;marker-end:url(#TriangleOutL);marker-mid:url(#TriangleOutL)"/><g id="node8" class="node" transform="translate(-1289.4057,511.19004)"><title id="title147">Prepare</title><ellipse style="fill:#fca;stroke:#000" id="ellipse149" cx="1769" cy="-372.665" d="m 1815.2923,-372.66501 c 0,9.94113 -20.7258,18 -46.2923,18 -25.5665,0 -46.2923,-8.05887 -46.2923,-18 0,-9.94112 20.7258,-18 46.2923,-18 25.5665,0 46.2923,8.05888 46.2923,18 z" rx="46.292" ry="18"/><text style="font-size:14px;text-anchor:middle;font-family:Verdana" id="text151" x="1769" y="-368.965" font-size="14">Prepare</text></g><g id="edge21" class="edge" transform="translate(-118.2057,525.59004)"><title id="title172">Exchange-&gt;Election</title><path style="fill:none;stroke:#000;marker-mid:url(#TriangleOutL);marker-end:url(#TriangleOutL)" id="path174" d="M 590.56522,-7.3935867 C 615.9213,-41.156644 556.55797,-32.783076 543.85206,-74.658694 536.51324,-98.845701 526.12101,-124.5845 523.80237,-159.88594"/></g><path id="path183" d="m 444.10672,517.41332 c 4.59692,-46.31121 -215.87159,-3.24128 -297.81211,-48.96628 -50.205691,-48.089 -18.95688,-172.6189 -6.15197,-188.76536" style="fill:none;stroke:#000;marker-end:url(#TriangleOutL);marker-mid:url(#TriangleOutL)"/><text id="text187" x="396.088" y="490.876" font-size="14" style="font-size:14px;text-anchor:middle;font-family:Verdana">Failed</text><text id="text214" x="404.519" y="113.551" font-size="14" style="font-size:14px;text-anchor:middle;font-family:Verdana">Time out</text><path id="path251" d="M 645.27567,121.83204 C 641.68643,73.428041 521.04037,87.134041 471.71992,88.520041 c -89.65204,2.52 -241.83793,-6.007 -269.15646,30.534999 -24.54402,32.83 -39.95073,100.448 -40.1409,126.027" style="fill:none;stroke:#000;marker-end:url(#TriangleOutL);marker-mid:url(#TriangleOutL)"/><text id="text255" x="592.816" y="79.144" font-size="14" style="font-size:14px;text-anchor:middle;font-family:Verdana">Time out</text><path id="path260" d="m 837.12882,120.85104 c -0.2582,-13.426 -9.7919,-48.497999 -67.2914,-53.415999 -66.88563,-5.719 -548.53979,-37.94 -586.69092,41.097999 -21.25245,44.029 -33.64479,102.241 -29.17733,137.881" style="fill:none;stroke:#000;marker-end:url(#TriangleOutL);marker-mid:url(#TriangleOutL)"/><text id="text264" x="677.11" y="46.496" font-size="14" style="font-size:14px;text-anchor:middle;font-family:Verdana">Most failures</text><g id="node11" class="node" transform="translate(-38.2057,653.59004)"><title id="title276">Repair</title><ellipse style="fill:#fca;stroke:#000" id="ellipse278" cx="293" cy="-124.665" d="m 333.0939,-124.665 c 0,9.94112 -17.95065,18 -40.0939,18 -22.14325,0 -40.0939,-8.05888 -40.0939,-18 0,-9.94113 17.95065,-18 40.0939,-18 22.14325,0 40.0939,8.05887 40.0939,18 z" rx="40.094" ry="18"/><text style="font-size:14px;text-anchor:middle;font-family:Verdana" id="text280" x="293" y="-120.965" font-size="14">Repair</text></g><g id="g8280" transform="translate(-142.2057,-31.124959)"><path style="fill:none;stroke:#000;marker-end:url(#TriangleOutL)" id="path285" d="m 437.282,558.519 c 21.70061,-0.7546 62.43898,1.74049 74.90989,-1.57231"/></g><g id="g5074" transform="translate(-107.0057,96.875041)"><path style="fill:none;stroke:#000;marker-end:url(#TriangleOutL)" id="path301" d="m 272.039,432.05 c 39.693,0 5.062,0 43.656,0"/><text id="text3489" x="295.937" y="401.781" xml:space="preserve" style="font-size:14px;font-style:normal;font-variant:normal;font-weight:400;font-stretch:normal;text-align:center;line-height:125%;letter-spacing:0;word-spacing:0;text-anchor:middle;fill:#000;fill-opacity:1;stroke:none;font-family:Verdana;-inkscape-font-specification:Verdana"><tspan id="tspan3491" x="295.937" y="401.781">Tree</tspan><tspan id="tspan3493" x="295.937" y="419.281">corrupted</tspan></text></g><g id="g5089" transform="translate(-190.2057,-31.124959)"><path style="fill:none;stroke:#000;marker-end:url(#TriangleOutL)" id="path40" d="m 377.02007,282.69373 c -1.53835,-14.1926 -6.10393,-36.42776 11.9621,-50.8138 22.25765,-11.87923 78.42044,-5.90339 87.62667,-6.25092"/><text id="text5083" x="430.051" y="219.828" xml:space="preserve" style="font-size:14px;font-style:normal;font-variant:normal;font-weight:400;font-stretch:normal;text-align:center;line-height:125%;letter-spacing:0;word-spacing:0;text-anchor:middle;fill:#000;fill-opacity:1;stroke:none;font-family:Verdana;-inkscape-font-specification:Verdana"><tspan id="tspan5087" x="430.051" y="219.828">Is pending</tspan></text></g><g id="g6791" transform="translate(-1094.9768,-36.109959)"><path style="fill:none;stroke:#000;marker-end:url(#TriangleOutL)" id="path192" d="m 1750.6195,383.19702 c 21.951,-0.64916 43.2669,3.38735 73.0173,1.36532"/><text id="text5657" x="1750.79" y="377.12" xml:space="preserve" style="font-size:14px;font-style:normal;font-variant:normal;font-weight:400;font-stretch:normal;line-height:125%;letter-spacing:0;word-spacing:0;fill:#000;fill-opacity:1;stroke:none;font-family:Verdana;-inkscape-font-specification:Verdana"><tspan id="tspan5659" x="1750.79" y="377.12">Got epoch</tspan></text></g><g id="g11235" transform="translate(8.8030006,27.936041)"><path style="fill:none;stroke:#000;marker-end:url(#TriangleOutL);marker-mid:url(#TriangleOutL)" id="path113" d="m 339.58423,158.85383 c 23.48598,-8.9088 187.85854,0.83038 214.30975,4.21888 17.51534,2.24378 109.47963,-0.59535 141.39685,20.06112 44.77622,28.97867 17.8651,92.43325 41.91919,120.95165"/><text id="text6391" x="367.203" y="148.687" xml:space="preserve" style="font-size:14px;font-style:normal;font-variant:normal;font-weight:400;font-stretch:normal;line-height:125%;letter-spacing:0;word-spacing:0;fill:#000;fill-opacity:1;stroke:none;font-family:Verdana;-inkscape-font-specification:Verdana"><tspan id="tspan6393" x="367.203" y="148.687">Got commit</tspan></text></g><g id="g7716" transform="translate(-943.62569,-47.651959)"><path style="fill:none;stroke:#000;marker-end:url(#TriangleOutL)" id="path242" d="m 1639.9424,184.31931 c 54.49,0 23.0085,0.98757 82.2285,0.98757"/><text id="text6398" x="1678.93" y="145.526" xml:space="preserve" style="font-size:14px;font-style:normal;font-variant:normal;font-weight:400;font-stretch:normal;text-align:center;line-height:125%;letter-spacing:0;word-spacing:0;text-anchor:middle;fill:#000;fill-opacity:1;stroke:none;font-family:Verdana;-inkscape-font-specification:Verdana"><tspan id="tspan6400" x="1678.93" y="145.526">Quorum</tspan><tspan id="tspan6402" x="1678.93" y="163.026">accepted</tspan><tspan id="tspan6404" x="1678.93" y="180.526">new epoch</tspan></text></g><text style="font-size:14px;font-style:normal;font-variant:normal;font-weight:400;font-stretch:normal;text-align:center;line-height:125%;letter-spacing:0;word-spacing:0;text-anchor:middle;fill:#000;fill-opacity:1;stroke:none;font-family:Verdana;-inkscape-font-specification:Verdana" id="text6409" x="256.536" y="318.671" xml:space="preserve"><tspan id="tspan6411" x="256.536" y="318.671">Quorum,</tspan><tspan id="tspan6413" x="256.536" y="336.171">no leader</tspan></text><text style="font-size:14px;font-style:normal;font-variant:normal;font-weight:400;font-stretch:normal;text-align:center;line-height:125%;letter-spacing:0;word-spacing:0;text-anchor:middle;fill:#000;fill-opacity:1;stroke:none;font-family:Verdana;-inkscape-font-specification:Verdana" id="text6796" x="256.936" y="369.355" xml:space="preserve"><tspan id="tspan6798" x="256.936" y="369.355">Quorum,</tspan><tspan id="tspan6800" x="256.936" y="386.855">found leader</tspan></text><g id="g8840" transform="translate(-366.2057,-45.524959)"><path style="fill:none;stroke:#000;marker-end:url(#TriangleOutL)" id="path226" d="m 891.21316,186.97109 c 22.2657,-1.85943 56.7003,-2.86891 76.8631,-2.86196"/><text id="text7725" x="932.813" y="156.756" xml:space="preserve" style="font-size:14px;font-style:normal;font-variant:normal;font-weight:400;font-stretch:normal;text-align:center;line-height:125%;letter-spacing:0;word-spacing:0;text-anchor:middle;fill:#000;fill-opacity:1;stroke:none;font-family:Verdana;-inkscape-font-specification:Verdana"><tspan id="tspan7727" x="932.813" y="156.756">Quorum,</tspan><tspan id="tspan7729" x="932.813" y="174.256">send epoch</tspan></text></g><text style="font-size:14px;font-style:normal;font-variant:normal;font-weight:400;font-stretch:normal;text-align:center;line-height:125%;letter-spacing:0;word-spacing:0;text-anchor:middle;fill:#000;fill-opacity:1;stroke:none;font-family:Verdana;-inkscape-font-specification:Verdana" id="text8286" x="257.61" y="420.542" xml:space="preserve"><tspan id="tspan8288" x="257.61" y="420.542">Quorum,</tspan><tspan id="tspan8290" x="257.61" y="438.042">tree untrusted</tspan></text><text style="font-size:14px;font-style:normal;font-variant:normal;font-weight:400;font-stretch:normal;line-height:125%;letter-spacing:0;word-spacing:0;fill:#000;fill-opacity:1;stroke:none;font-family:Verdana;-inkscape-font-specification:Verdana" id="text9578" x="385.383" y="207.048" xml:space="preserve"><tspan id="tspan9580" x="385.383" y="207.048">Got prepare</tspan></text><g id="node3" class="node" transform="translate(-784.37452,468.71404)"><title id="title31">Pending</title><ellipse style="fill:#fca;stroke:#000" id="ellipse33" cx="1120" cy="-267.665" d="m 1166.5926,-267.66501 c 0,9.94113 -20.8602,18 -46.5926,18 -25.7324,0 -46.5926,-8.05887 -46.5926,-18 0,-9.94112 20.8602,-18 46.5926,-18 25.7324,0 46.5926,8.05888 46.5926,18 z" rx="46.593" ry="18"/><text style="font-size:14px;text-anchor:middle;font-family:Verdana" id="text35" x="1120" y="-263.965" font-size="14">Pending</text></g><g id="node2" class="node" transform="translate(-118.2057,525.59004)"><title id="title17">Probe</title><ellipse style="fill:#fca;stroke:#000" id="ellipse19" cx="293" cy="-258.665" d="m 329.2938,-258.66501 c 0,9.94113 -16.24929,18 -36.2938,18 -20.04451,0 -36.2938,-8.05887 -36.2938,-18 0,-9.94112 16.24929,-18 36.2938,-18 20.04451,0 36.2938,8.05888 36.2938,18 z" rx="36.294" ry="18"/><text style="font-size:14px;text-anchor:middle;font-family:Verdana" id="text21" x="293" y="-254.965" font-size="14">Probe</text></g><g id="node9" class="node" transform="translate(-1500.4474,547.06304)"><title id="title217">Prelead</title><ellipse style="fill:#fca;stroke:#000" id="ellipse219" cx="2152" cy="-410.665" d="m 2196.6926,-410.66501 c 0,9.94113 -20.0096,18 -44.6926,18 -24.683,0 -44.6926,-8.05887 -44.6926,-18 0,-9.94112 20.0096,-18 44.6926,-18 24.683,0 44.6926,8.05888 44.6926,18 z" rx="44.693" ry="18"/><text style="font-size:14px;text-anchor:middle;font-family:Verdana" id="text221" x="2152" y="-406.965" font-size="14">Prelead</text></g><g id="node10" class="node" transform="translate(-1631.6423,547.92004)"><title id="title233">Leading</title><ellipse style="fill:#fca;stroke:#000" id="ellipse235" cx="2460" cy="-410.665" d="m 2506.2923,-410.66501 c 0,9.94113 -20.7258,18 -46.2923,18 -25.5665,0 -46.2923,-8.05887 -46.2923,-18 0,-9.94112 20.7258,-18 46.2923,-18 25.5665,0 46.2923,8.05888 46.2923,18 z" rx="46.292" ry="18"/><text style="font-size:14px;text-anchor:middle;font-family:Verdana" id="text237" x="2460" y="-406.965" font-size="14">Leading</text></g><g id="node6" class="node" transform="translate(-388.53352,726.17101)"><title id="title79">Exchange</title><ellipse style="fill:#fca;stroke:#000" id="ellipse81" cx="819" cy="-200.665" d="m 873.6905,-200.66499 c 0,9.94112 -24.48577,18 -54.6905,18 -30.20473,0 -54.6905,-8.05888 -54.6905,-18 0,-9.94113 24.48577,-18 54.6905,-18 30.20473,0 54.6905,8.05887 54.6905,18 z" rx="54.69" ry="18"/><text style="font-size:14px;text-anchor:middle;font-family:Verdana" id="text83" x="819" y="-196.965" font-size="14">Exchange</text></g><g id="node12" class="node" transform="translate(57.794299,653.59004)"><title id="title292">Any State</title><ellipse style="fill:#fca;stroke:#000" id="ellipse294" cx="55" cy="-124.665" d="m 110.4913,-124.665 c 0,9.94112 -24.844302,18 -55.4913,18 -30.646998,0 -55.49129868,-8.05888 -55.49129868,-18 0,-9.94113 24.84430068,-18 55.49129868,-18 30.646998,0 55.4913,8.05887 55.4913,18 z" rx="55.491" ry="18"/><text style="font-size:14px;text-anchor:middle;font-family:Verdana" id="text296" x="55" y="-120.965" font-size="14">Any State</text></g><text style="font-size:14px;font-style:normal;font-variant:normal;font-weight:400;font-stretch:normal;text-align:center;line-height:125%;letter-spacing:0;word-spacing:0;text-anchor:middle;fill:#000;fill-opacity:1;stroke:none;font-family:Verdana;-inkscape-font-specification:Verdana" id="text15255" x="666.409" y="445.193" xml:space="preserve"><tspan id="tspan15257" x="666.409" y="445.193">Time out or</tspan><tspan id="tspan15259" x="666.409" y="462.693">exchange failed</tspan></text></svg>