<svg xmlns="http://www.w3.org/2000/svg" xmlns:svg="http://www.w3.org/2000/svg" xmlns:xlink="http://www.w3.org/1999/xlink" id="svg2" width="597.482" height="216" version="1.1"><metadata id="metadata7"/><g id="layer1" transform="translate(-42.883648,-304.72753)"><path style="fill:#ffdb9d;fill-opacity:1;stroke:#483737;stroke-width:.53249973;stroke-miterlimit:4;stroke-opacity:1;stroke-dasharray:none" id="path4099" d="m 154.95432,85.721489 a 41.549545,41.549545 0 1 1 -83.099088,0 41.549545,41.549545 0 1 1 83.099088,0 z" transform="matrix(0.42266305,0,0,0.42266305,196.51166,350.01129)"/><use id="use4899" width="744.094" height="1052.362" x="0" y="0" transform="translate(97.180836,-49.87424)" xlink:href="#path4099"/><use id="use4901" width="744.094" height="1052.362" x="0" y="0" transform="translate(97.180811,49.87424)" xlink:href="#use4899"/><path id="path4912" d="m 265.00598,360.37631 32.22774,-20.26701 -1.53537,-2.44149 13.14382,-0.77024 -6.38816,11.51281 -1.53538,-2.44149 -32.22774,20.26702 z" style="fill:#2b1100;fill-opacity:1;stroke:none"/><path style="fill:#2b1100;fill-opacity:1;stroke:none" id="path4914" d="m 317.73339,357.21838 -32.17721,20.34714 1.54143,2.43766 -13.14186,0.80294 6.35949,-11.52867 1.54145,2.43766 32.17721,-20.34715 z"/><path style="fill:#2b1100;fill-opacity:1;stroke:none" id="path4916" d="m 403.90846,380.07078 -32.58444,-19.68841 -1.49155,2.4685 -6.59267,-11.39692 13.15548,0.53546 -1.49154,2.46851 32.58445,19.6884 z"/><path id="path4918" d="m 377.40062,334.38175 32.63333,19.60727 1.4854,-2.4722 6.62102,11.38048 -13.15678,-0.50272 1.4854,-2.47222 -32.63333,-19.60726 z" style="fill:#2b1100;fill-opacity:1;stroke:none"/><text style="font-size:16.90652275px;font-style:normal;font-weight:400;line-height:125%;letter-spacing:0;word-spacing:0;fill:#000;fill-opacity:1;stroke:none;font-family:Sans" id="text4920" x="238.484" y="391.061" xml:space="preserve"><tspan id="tspan4922" x="238.484" y="391.061">A</tspan></text><text style="font-size:16.90652275px;font-style:normal;font-weight:400;line-height:125%;letter-spacing:0;word-spacing:0;fill:#000;fill-opacity:1;stroke:none;font-family:Sans" id="text4924" x="336.167" y="341.889" xml:space="preserve"><tspan id="tspan4926" x="336.167" y="341.889">B</tspan></text><text style="font-size:16.90652275px;font-style:normal;font-weight:400;line-height:125%;letter-spacing:0;word-spacing:0;fill:#000;fill-opacity:1;stroke:none;font-family:Sans" id="text4928" x="432.335" y="392.444" xml:space="preserve"><tspan id="tspan4930" x="432.335" y="392.444">C</tspan></text><path id="path4932" d="m 154.95432,85.721489 a 41.549545,41.549545 0 1 1 -83.099088,0 41.549545,41.549545 0 1 1 83.099088,0 z" transform="matrix(0.42266305,0,0,0.42266305,196.51166,447.22379)" style="fill:#ffdb9d;fill-opacity:1;stroke:#483737;stroke-width:.53249973;stroke-miterlimit:4;stroke-opacity:1;stroke-dasharray:none"/><use id="use4934" width="744.094" height="1052.362" x="0" y="0" transform="translate(97.180836,47.338262)" xlink:href="#path4099"/><use id="use4936" width="744.094" height="1052.362" x="0" y="0" transform="translate(97.180811,147.08674)" xlink:href="#use4899"/><path style="fill:#2b1100;fill-opacity:1;stroke:none" id="path4938" d="m 265.00598,457.58881 32.22774,-20.26701 -1.53537,-2.44149 13.14382,-0.77024 -6.38816,11.51282 -1.53538,-2.4415 -32.22774,20.26703 z"/><path style="fill:#2b1100;fill-opacity:1;stroke:none" id="path4944" d="m 377.40062,431.59426 32.63333,19.60727 1.4854,-2.47221 6.62102,11.38049 -13.15678,-0.50273 1.4854,-2.47221 -32.63333,-19.60727 z"/><text id="text4946" x="238.484" y="488.273" xml:space="preserve" style="font-size:16.90652275px;font-style:normal;font-weight:400;line-height:125%;letter-spacing:0;word-spacing:0;fill:#000;fill-opacity:1;stroke:none;font-family:Sans"><tspan id="tspan4948" x="238.484" y="488.273">A</tspan></text><text id="text4950" x="336.167" y="439.102" xml:space="preserve" style="font-size:16.90652275px;font-style:normal;font-weight:400;line-height:125%;letter-spacing:0;word-spacing:0;fill:#000;fill-opacity:1;stroke:none;font-family:Sans"><tspan id="tspan4952" x="336.167" y="439.102">B</tspan></text><text id="text4954" x="432.335" y="489.656" xml:space="preserve" style="font-size:16.90652275px;font-style:normal;font-weight:400;line-height:125%;letter-spacing:0;word-spacing:0;fill:#000;fill-opacity:1;stroke:none;font-family:Sans"><tspan id="tspan4956" x="432.335" y="489.656">C</tspan></text><path id="path4958" d="m 411.53934,483.10402 -125.18048,0 0,-2.82322 -11.2929,6.21109 11.2929,6.2111 0,-2.82323 125.18048,0 z" style="fill:#2b1100;fill-opacity:1;stroke:none"/></g></svg>